<?xml version="1.0" encoding="UTF-8"?>
<!-- Generator: visioncortex VTracer 0.6.0 -->
<svg version="1.1" xmlns="http://www.w3.org/2000/svg" width="256" height="256">
<path d="M0 0 C3.16 5.95 3.57 12.86 4.46 19.44 C4.67 20.92 4.88 22.39 5.09 23.87 C5.63 27.64 6.15 31.42 6.66 35.19 C6.95 37.28 7.23 39.36 7.52 41.44 C8.73 50.08 9.87 58.72 10.96 67.38 C11.19 69.19 11.19 69.19 11.42 71.03 C11.86 74.54 12.29 78.05 12.71 81.57 C12.84 82.6 12.97 83.63 13.1 84.7 C15.6 106.13 15.6 106.13 9.59 108.19 C2.06 108.73 0.69 102.49 -1.04 96.38 C-1.93 91.66 -2.56 86.94 -3.14 82.18 C-3.62 78.21 -4.14 74.26 -4.67 70.3 C-4.78 69.49 -4.88 68.68 -4.99 67.84 C-6.2 58.89 -7.75 50.01 -9.35 41.13 C-9.49 40.38 -9.62 39.63 -9.76 38.86 C-10.51 34.69 -11.27 30.54 -12.04 26.38 C-13.79 29.56 -15.54 32.75 -17.29 35.94 C-18.1 37.41 -18.1 37.41 -18.92 38.92 C-21.76 44.12 -24.55 49.34 -27.26 54.61 C-28.04 56.12 -28.04 56.12 -28.83 57.66 C-29.82 59.58 -30.79 61.51 -31.76 63.44 C-42.58 84.54 -42.58 84.54 -50.9 83.22 C-55.32 81.48 -57.47 77.18 -60.04 73.38 C-68.78 61.35 -78.35 50.14 -88.49 39.27 C-90.04 37.38 -90.04 37.38 -90.04 35.38 C-90.7 35.38 -91.36 35.38 -92.04 35.38 C-91.78 40.77 -91.51 46.16 -91.24 51.55 C-91.15 53.38 -91.06 55.21 -90.97 57.04 C-90.84 59.68 -90.71 62.33 -90.57 64.97 C-90.54 65.78 -90.5 66.58 -90.46 67.41 C-90.22 72.1 -89.82 76.73 -89.26 81.39 C-88.93 84.34 -88.83 87.28 -88.79 90.25 C-88.76 91.34 -88.74 92.44 -88.71 93.56 C-89.22 97.96 -90.69 99.15 -94.98 99.88 C-109.69 97.48 -106.12 58.19 -106.27 47.14 C-106.3 43.86 -106.32 40.58 -106.34 37.3 C-106.35 35.1 -106.36 32.91 -106.38 30.71 C-106.4 27.59 -106.41 24.48 -106.4 21.36 C-106.41 20.41 -106.42 19.46 -106.43 18.49 C-106.36 8.69 -106.36 8.69 -100.66 6.44 C-93.54 6.27 -91.91 11.37 -89.28 17.02 C-87.7 20.03 -85.79 21.42 -83.04 23.38 C-76.04 30.63 -76.04 30.63 -76.04 33.38 C-75.38 33.38 -74.72 33.38 -74.04 33.38 C-72.23 35.51 -70.53 37.65 -68.85 39.88 C-65.72 43.95 -62.6 47.99 -59.16 51.82 C-56.16 55.16 -53.58 58.68 -51.04 62.38 C-46.99 61.03 -46.69 59.36 -44.75 55.61 C-44.44 55.02 -44.13 54.43 -43.81 53.83 C-42.81 51.93 -41.83 50.03 -40.85 48.13 C-39.57 45.66 -38.29 43.2 -37 40.74 C-36.68 40.13 -36.35 39.51 -36.02 38.88 C-32.65 32.53 -28.87 26.46 -25.04 20.38 C-24.27 19.13 -23.51 17.87 -22.75 16.62 C-7.11 -9.14 -7.11 -9.14 0 0 Z " fill="#000000" transform="translate(175.0390625,83.62109375)"/>
</svg>
